# xmcd
#
# Track frame offsets: 
#        150
#        15579
#        31332
#        48262
#        60389
#        73836
#        85888
#        100202
#        113478
#        126195
#        142390
#        161671
#        170845
#        180568
#        194324
#        206211
#        221005
#        235618
#        247623
#
# Disc length: 3472 seconds
#
# Revision: 2
# Processed by: cddbd v1.5.2PL0 Copyright (c) Steve Scherf et al.
# Submitted via: ExactAudioCopy v0.99pb4
#
DISCID=0b0d8e13
DTITLE=Verzamel - Country Classics CD1
DYEAR=2008
DGENRE=Country
TTITLE0=Billy Ray Cyrus - Achy Breaky Heart
TTITLE1=Jonh Denver - Thank God I'm a Country Boy
TTITLE2=Johnny Cash - A Boy named Sue
TTITLE3=Tammy Wynette - Stand by Your Man
TTITLE4=Kenny Rogers - Ruby, Don't take your love to town
TTITLE5=Dolly Parton - Jolene
TTITLE6=Glen Campbell - Rhineston Cowboy
TTITLE7=Lynn Anderson - Rose Garden
TTITLE8=Loggens and Messina - Your Mama Don't dance
TTITLE9=Charly Daniels Band - The Devil Went Down to Georgia
TTITLE10=Poco - Call it Love
TTITLE11=Franky Lane - Rawhide
TTITLE12=Waylon Jennings - Them of the Dukes of Hazzard
TTITLE13=The Highway Men - The Highway Men
TTITLE14=Johnny Paycheck - Take This job and Shove It
TTITLE15=Rosanne Cash - Seven Years ache
TTITLE16=Lorne Greene - Ringo
TTITLE17=Guy Mitchell - Heartaches By The Number
TTITLE18=Marty Robbins - Devol Women
EXTD=
EXTT0=
EXTT1=
EXTT2=
EXTT3=
EXTT4=
EXTT5=
EXTT6=
EXTT7=
EXTT8=
EXTT9=
EXTT10=
EXTT11=
EXTT12=
EXTT13=
EXTT14=
EXTT15=
EXTT16=
EXTT17=
EXTT18=
PLAYORDER=
